<?xml version="1.0" standalone="no"?>
<!DOCTYPE svg PUBLIC "-//W3C//DTD SVG 20010904//EN"
 "http://www.w3.org/TR/2001/REC-SVG-20010904/DTD/svg10.dtd">
<svg version="1.0" xmlns="http://www.w3.org/2000/svg"
 width="225.000000pt" height="66.000000pt" viewBox="0 0 225.000000 66.000000"
 preserveAspectRatio="xMidYMid meet">
<metadata>
Created by potrace 1.16, written by Peter Selinger 2001-2019
</metadata>
<g transform="translate(0.000000,66.000000) scale(0.100000,-0.100000)"
fill="#000000" stroke="none">
<path d="M140 545 c0 -8 -9 -15 -19 -15 -47 0 -51 -19 -51 -224 0 -174 2 -195
18 -209 16 -14 43 -17 173 -17 215 0 199 -18 199 224 0 160 -3 196 -15 206 -8
7 -15 9 -15 5 0 -4 -14 5 -31 19 -36 30 -76 33 -122 9 -36 -19 -78 -18 -90 3
-11 19 -47 18 -47 -1z m233 -7 c12 -6 27 -18 34 -27 15 -19 17 -97 4 -106 -7
-4 -125 46 -170 72 -2 1 4 14 13 28 27 41 78 55 119 33z m-236 -25 c-3 -5 -1
-18 4 -31 13 -34 53 -27 57 11 2 19 9 27 24 27 14 0 18 -5 14 -16 -17 -44 -17
-68 -1 -104 17 -38 17 -39 -4 -68 -11 -17 -21 -37 -21 -45 0 -10 -12 -17 -32
-20 -20 -3 -17 -3 9 -2 22 1 47 -1 54 -6 7 -4 17 -5 23 -2 5 4 33 6 60 6 l51
0 -47 4 c-54 5 -52 3 -36 38 12 27 47 41 75 31 10 -4 15 -4 11 -1 -4 4 8 19
25 35 29 25 32 34 32 83 0 30 3 50 7 44 14 -22 8 -82 -12 -115 -14 -23 -20
-50 -20 -92 0 -50 -3 -60 -17 -62 -51 -4 -73 -3 -73 4 0 4 -40 8 -90 8 -53 0
-90 -4 -90 -10 0 -6 37 -10 91 -10 l90 0 -3 -42 -3 -43 -88 -3 c-57 -2 -94 1
-103 9 -11 9 -14 43 -14 150 l0 139 50 0 c28 0 50 5 50 10 0 6 -25 10 -55 10
l-55 0 0 -155 c0 -146 1 -155 22 -175 l22 -20 -22 0 c-13 0 -24 6 -27 13 -8
26 -11 377 -3 391 5 9 18 16 29 16 11 0 18 -3 16 -7z"/>
<path d="M1226 373 l-39 -4 7 -52 c3 -29 6 -80 6 -114 l0 -63 35 0 c24 0 35 5
35 15 0 19 19 19 26 0 4 -10 20 -15 45 -15 43 0 44 2 27 30 -10 15 -9 22 5 38
21 23 22 65 2 82 -10 8 -32 11 -61 7 l-46 -5 6 44 c3 24 2 43 -2 42 -4 -1 -24
-3 -46 -5z"/>
<path d="M500 334 c0 -31 3 -36 20 -31 19 5 20 0 20 -79 l0 -84 46 0 46 0 -3
83 c-4 80 -3 82 19 81 18 0 22 5 22 33 l0 33 -85 0 -85 0 0 -36z"/>
<path d="M1740 358 c0 -7 -3 -24 -7 -36 -5 -21 -3 -23 18 -20 24 3 24 2 21
-79 l-3 -83 45 0 46 0 0 86 c0 81 1 86 20 81 17 -4 20 0 20 29 l0 34 -80 0
c-57 0 -80 -4 -80 -12z"/>
<path d="M1918 334 c-4 -33 -2 -35 19 -31 23 4 23 3 23 -79 l0 -84 43 0 42 0
-3 86 -4 87 26 -5 c24 -5 26 -2 26 28 l0 34 -84 0 -84 0 -4 -36z"/>
<path d="M1455 298 c-33 -17 -45 -40 -45 -80 0 -52 27 -78 83 -78 55 0 76 13
58 34 -8 10 -22 14 -36 10 -13 -3 -26 -1 -29 5 -4 6 12 12 39 16 28 5 45 12
45 21 0 26 -23 62 -47 73 -30 14 -42 13 -68 -1z"/>
<path d="M708 293 c-15 -4 -18 -16 -18 -79 l0 -74 40 0 40 0 0 40 c0 33 3 40
20 40 17 0 20 7 20 40 0 43 -2 45 -31 30 -13 -7 -19 -7 -19 0 0 10 -20 11 -52
3z"/>
<path d="M864 292 c-36 -24 -44 -97 -15 -129 16 -17 32 -21 93 -21 l73 -1 0
74 c0 72 -1 75 -25 78 -45 8 -115 7 -126 -1z"/>
<path d="M1061 274 c-47 -59 -8 -134 69 -134 35 0 40 3 40 23 0 27 -10 42 -29
42 -23 0 -25 26 -2 32 12 3 21 8 21 12 0 3 3 16 6 29 6 20 3 22 -39 22 -37 0
-49 -5 -66 -26z"/>
</g>
</svg>
