<?xml version="1.0" standalone="no"?>
<!DOCTYPE svg PUBLIC "-//W3C//DTD SVG 20010904//EN"
 "http://www.w3.org/TR/2001/REC-SVG-20010904/DTD/svg10.dtd">
<svg version="1.0" xmlns="http://www.w3.org/2000/svg"
 width="102.000000pt" height="30.000000pt" viewBox="0 0 102.000000 30.000000"
 preserveAspectRatio="xMidYMid meet">

<g transform="translate(0.000000,30.000000) scale(0.100000,-0.100000)"
fill="#000000" stroke="none">
<path d="M67 253 c-4 -3 -7 -14 -7 -24 0 -10 -5 -21 -12 -25 -8 -5 -9 0 -5 16
4 15 2 19 -4 13 -5 -5 -9 -50 -7 -99 l3 -89 85 0 85 0 0 90 c1 67 -3 93 -14
101 -19 15 -51 6 -50 -15 0 -10 2 -11 6 -3 2 6 9 12 15 12 6 0 6 -6 -2 -15 -9
-11 -17 -12 -30 -5 -29 16 -33 12 -26 -21 3 -18 1 -38 -5 -45 -9 -11 -7 -15 7
-21 10 -4 19 -2 22 5 2 7 18 20 35 28 27 14 29 18 15 28 -13 10 -14 15 -3 29
11 16 13 15 17 -13 3 -17 1 -33 -3 -35 -4 -3 -5 -14 -2 -25 8 -29 -14 -52 -37
-40 -10 6 -34 9 -52 9 -26 -1 -28 -3 -8 -6 55 -8 71 -14 65 -23 -3 -6 -2 -10
4 -10 5 0 11 6 14 13 2 6 8 9 12 5 16 -15 -8 -25 -66 -27 -34 -1 -64 -3 -68
-5 -3 -2 -4 27 -3 66 3 58 7 71 22 75 23 6 32 39 16 53 -7 5 -16 7 -19 3z m10
-25 c-3 -8 -6 -5 -6 6 -1 11 2 17 5 13 3 -3 4 -12 1 -19z m67 -50 c-5 -8 -2
-9 10 -5 10 4 15 3 11 -3 -3 -6 -13 -10 -21 -10 -8 0 -17 -7 -20 -15 -4 -8
-10 -15 -15 -15 -15 0 23 59 39 60 2 0 0 -5 -4 -12z"/>
<path d="M230 155 c0 -8 5 -15 10 -15 6 0 10 -16 10 -35 0 -24 5 -35 15 -35
10 0 15 11 15 35 0 19 5 35 10 35 6 0 10 7 10 15 0 10 -11 15 -35 15 -24 0
-35 -5 -35 -15z"/>
<path d="M540 121 l0 -50 40 1 c21 0 39 3 38 7 -1 3 2 14 7 25 9 20 -11 39
-32 31 -8 -2 -13 4 -13 15 0 13 -7 20 -20 20 -17 0 -20 -7 -20 -49z m50 -21
c0 -5 -2 -10 -4 -10 -3 0 -8 5 -11 10 -3 6 -1 10 4 10 6 0 11 -4 11 -10z"/>
<path d="M790 155 c0 -8 5 -15 11 -15 7 0 10 -14 7 -35 -3 -29 -1 -35 14 -35
14 0 18 8 18 35 0 19 5 35 10 35 6 0 10 7 10 15 0 10 -11 15 -35 15 -24 0 -35
-5 -35 -15z"/>
<path d="M870 155 c0 -8 5 -15 10 -15 6 0 10 -16 10 -35 0 -29 4 -35 20 -35
18 0 20 4 14 35 -5 27 -3 35 8 35 8 0 15 7 15 15 0 11 -11 15 -39 15 -27 0
-38 -4 -38 -15z"/>
<path d="M148 133 c7 -3 16 -2 19 1 4 3 -2 6 -13 5 -11 0 -14 -3 -6 -6z"/>
<path d="M393 133 c-16 -6 -17 -60 -1 -65 6 -2 24 -2 40 0 23 4 28 9 28 33 0
16 -3 29 -7 30 -5 0 -17 2 -28 4 -11 1 -26 1 -32 -2z m37 -33 c0 -5 -4 -10
-10 -10 -5 0 -10 5 -10 10 0 6 5 10 10 10 6 0 10 -4 10 -10z"/>
<path d="M480 125 c-24 -29 18 -81 44 -55 8 8 7 14 -4 21 -11 8 -12 12 -2 16
19 7 14 33 -7 33 -10 0 -24 -7 -31 -15z"/>
<path d="M652 128 c-19 -19 -14 -46 9 -59 15 -8 24 -8 32 0 8 8 6 11 -9 11
-19 1 -19 1 1 12 29 16 29 16 15 33 -15 18 -32 19 -48 3z"/>
<path d="M315 100 c0 -22 5 -30 18 -30 9 0 17 7 17 15 0 8 4 15 8 15 5 0 9 7
9 15 0 9 -10 15 -26 15 -22 0 -26 -4 -26 -30z"/>
<path d="M728 100 c4 -30 32 -43 32 -15 0 8 5 15 10 15 6 0 10 7 10 15 0 10
-10 15 -28 15 -26 0 -28 -3 -24 -30z"/>
</g>
</svg>
